<svg width="30" height="30" viewBox="0 0 30 30" fill="none" xmlns="http://www.w3.org/2000/svg">
<path d="M5 12.5L4.29289 13.2071L3.58579 12.5L4.29289 11.7929L5 12.5ZM26 22.5C26 23.0523 25.5523 23.5 25 23.5C24.4477 23.5 24 23.0523 24 22.5L26 22.5ZM11.25 18.75L10.5429 19.4571L4.29289 13.2071L5 12.5L5.70711 11.7929L11.9571 18.0429L11.25 18.75ZM5 12.5L4.29289 11.7929L10.5429 5.54289L11.25 6.25L11.9571 6.95711L5.70711 13.2071L5 12.5ZM5 12.5L5 11.5L19 11.5L19 12.5L19 13.5L5 13.5L5 12.5ZM25 18.5L26 18.5L26 22.5L25 22.5L24 22.5L24 18.5L25 18.5ZM19 12.5L19 11.5C22.866 11.5 26 14.634 26 18.5L25 18.5L24 18.5C24 15.7386 21.7614 13.5 19 13.5L19 12.5Z" fill="#4B63B7"/>
</svg>
