<svg width="46" height="46" viewBox="0 0 46 46" fill="none" xmlns="http://www.w3.org/2000/svg">
<rect width="46" height="46" rx="23" fill="#EDEFF8"/>
<path d="M13 20.5L12.2929 21.2071L11.5858 20.5L12.2929 19.7929L13 20.5ZM34 30.5C34 31.0523 33.5523 31.5 33 31.5C32.4477 31.5 32 31.0523 32 30.5L34 30.5ZM19.25 26.75L18.5429 27.4571L12.2929 21.2071L13 20.5L13.7071 19.7929L19.9571 26.0429L19.25 26.75ZM13 20.5L12.2929 19.7929L18.5429 13.5429L19.25 14.25L19.9571 14.9571L13.7071 21.2071L13 20.5ZM13 20.5L13 19.5L27 19.5L27 20.5L27 21.5L13 21.5L13 20.5ZM33 26.5L34 26.5L34 30.5L33 30.5L32 30.5L32 26.5L33 26.5ZM27 20.5L27 19.5C30.866 19.5 34 22.634 34 26.5L33 26.5L32 26.5C32 23.7386 29.7614 21.5 27 21.5L27 20.5Z" fill="#4B63B7"/>
</svg>
