<svg width="24" height="24" viewBox="0 0 24 24" fill="none" xmlns="http://www.w3.org/2000/svg">
<path d="M11.9999 4.1499C17.0567 4.1499 21.1697 8.27434 21.1698 13.3296C21.1698 18.3857 17.0561 22.4995 11.9999 22.4995C6.94305 22.4995 2.82999 18.3752 2.82999 13.3198C2.83003 8.26374 6.94383 4.14994 11.9999 4.1499ZM11.9999 7.74951C11.8662 7.74956 11.7501 7.86584 11.7499 7.99951V12.9995C11.7499 13.1333 11.8661 13.2495 11.9999 13.2495C12.1338 13.2495 12.2499 13.1334 12.2499 12.9995V7.99951C12.2497 7.86582 12.1336 7.74951 11.9999 7.74951Z" fill="#4B63B7" stroke="#4B63B7"/>
<path d="M12 8.5L12 13" stroke="white" stroke-width="2" stroke-linecap="round"/>
<path d="M14.89 2.45H9.11001C8.71001 2.45 8.39001 2.13 8.39001 1.73C8.39001 1.33 8.71001 1 9.11001 1H14.89C15.29 1 15.61 1.32 15.61 1.72C15.61 2.12 15.29 2.45 14.89 2.45Z" fill="#4B63B7"/>
</svg>
