<svg width="157" height="19" viewBox="0 0 157 19" fill="none" xmlns="http://www.w3.org/2000/svg">
<path d="M0.264 1.512C0.264 1.432 0.608 1.36 1.296 1.296C2 1.216 2.576 1.176 3.024 1.176C4.8 1.176 5.728 1.408 5.808 1.872L7.872 12.432L9.816 1.872C9.912 1.408 10.904 1.176 12.792 1.176C13.256 1.176 13.84 1.208 14.544 1.272C15.248 1.336 15.6 1.408 15.6 1.488L11.352 17.376C11.288 17.632 10.816 17.8 9.936 17.88C8.576 18.024 7.336 18.056 6.216 17.976C5.112 17.88 4.528 17.72 4.464 17.496L0.264 1.512ZM30.2192 17.472C30.2192 17.808 29.4672 17.976 27.9632 17.976C26.4592 17.976 25.6432 17.856 25.5152 17.616L21.5072 10.128V17.592C21.5072 17.88 20.7632 18.024 19.2752 18.024C17.8032 18.024 17.0672 17.88 17.0672 17.592V1.536C17.0672 1.296 17.6992 1.176 18.9632 1.176C19.4592 1.176 20.0352 1.224 20.6912 1.32C21.3632 1.4 21.7712 1.56 21.9152 1.8L25.7552 9.192V1.656C25.7552 1.352 26.4992 1.2 27.9872 1.2C29.4752 1.2 30.2192 1.352 30.2192 1.656V17.472ZM40.4777 1.68C40.4777 1.36 41.3417 1.2 43.0697 1.2C44.8137 1.2 45.6857 1.36 45.6857 1.68V12.696C45.6857 14.328 45.1017 15.664 43.9337 16.704C42.7657 17.728 41.1497 18.24 39.0857 18.24C37.0377 18.24 35.3657 17.712 34.0697 16.656C32.7897 15.584 32.1497 14.144 32.1497 12.336V1.704C32.1497 1.384 33.0137 1.224 34.7417 1.224C36.4857 1.224 37.3577 1.384 37.3577 1.704V12.528C37.3577 12.848 37.5257 13.104 37.8617 13.296C38.2137 13.488 38.5817 13.584 38.9657 13.584C39.3497 13.584 39.6937 13.496 39.9977 13.32C40.3177 13.144 40.4777 12.88 40.4777 12.528V1.68ZM60.756 17.592C60.756 17.864 59.948 18 58.332 18C56.716 18 55.908 17.864 55.908 17.592V12.072H52.548V17.592C52.548 17.864 51.74 18 50.124 18C48.508 18 47.7 17.864 47.7 17.592V1.68C47.7 1.344 48.508 1.176 50.124 1.176C51.74 1.176 52.548 1.344 52.548 1.68V7.32H55.908V1.728C55.908 1.504 56.308 1.344 57.108 1.248C57.524 1.216 57.932 1.2 58.332 1.2L59.556 1.248C60.356 1.344 60.756 1.504 60.756 1.728V17.592ZM70.0093 0.983999C71.1773 0.983999 72.2013 1.152 73.0813 1.488C73.9773 1.808 74.4253 2.248 74.4253 2.808C74.4253 3.368 74.2093 4.064 73.7773 4.896C73.3613 5.712 73.0093 6.12 72.7213 6.12C72.6413 6.12 72.5453 6.08 72.4333 6C72.3373 5.904 72.0973 5.808 71.7133 5.712C71.3453 5.6 71.0253 5.544 70.7533 5.544C69.8253 5.544 69.0733 5.872 68.4973 6.528C67.9373 7.184 67.6573 8.192 67.6573 9.552C67.6573 10.896 67.9453 11.896 68.5213 12.552C69.1133 13.208 69.8573 13.536 70.7533 13.536C71.1213 13.536 71.5293 13.488 71.9773 13.392C72.4413 13.28 72.7693 13.128 72.9613 12.936C72.9933 12.904 73.0573 12.888 73.1533 12.888C73.2493 12.888 73.4253 13.072 73.6813 13.44C73.9533 13.792 74.2013 14.264 74.4253 14.856C74.6493 15.432 74.7613 15.88 74.7613 16.2C74.7613 16.824 74.2813 17.32 73.3213 17.688C72.3613 18.056 71.2253 18.24 69.9133 18.24C67.8013 18.24 66.0653 17.496 64.7053 16.008C63.3453 14.52 62.6653 12.424 62.6653 9.72C62.6653 7 63.3613 4.864 64.7533 3.312C66.1613 1.76 67.9133 0.983999 70.0093 0.983999ZM93.3984 18.024C91.9744 18.024 91.2624 17.864 91.2624 17.544L90.7584 7.92L87.8304 17.664C87.7664 17.856 87.2224 17.952 86.1984 17.952C85.1744 17.952 84.6464 17.864 84.6144 17.688L81.5904 7.824L81.2544 17.4C81.2384 17.64 80.9344 17.808 80.3424 17.904C79.7504 17.984 79.2544 18.024 78.8544 18.024C78.4704 18.024 78.0944 18 77.7264 17.952C76.9584 17.84 76.5824 17.64 76.5984 17.352L77.1504 1.752C77.1504 1.368 78.1264 1.176 80.0784 1.176C80.6544 1.176 81.3584 1.224 82.1904 1.32C83.0224 1.4 83.4864 1.568 83.5824 1.824L86.2704 9.384L88.6224 1.8C88.7664 1.384 89.8704 1.176 91.9344 1.176C92.5264 1.176 93.2304 1.224 94.0464 1.32C94.8784 1.4 95.2944 1.552 95.2944 1.776L95.9904 17.52C95.9904 17.696 95.6784 17.824 95.0544 17.904C94.4304 17.984 93.8784 18.024 93.3984 18.024ZM112.735 13.44H103.255C102.967 13.44 102.759 13.208 102.631 12.744C102.567 12.504 102.535 12.272 102.535 12.048C102.535 11.824 102.567 11.592 102.631 11.352C102.759 10.888 102.967 10.656 103.255 10.656H112.735C113.023 10.656 113.231 10.888 113.359 11.352C113.423 11.592 113.455 11.824 113.455 12.048C113.455 12.272 113.423 12.504 113.359 12.744C113.231 13.208 113.023 13.44 112.735 13.44ZM127.876 1.68C127.876 1.36 128.74 1.2 130.468 1.2C132.212 1.2 133.084 1.36 133.084 1.68V12.696C133.084 14.328 132.5 15.664 131.332 16.704C130.164 17.728 128.548 18.24 126.484 18.24C124.436 18.24 122.764 17.712 121.468 16.656C120.188 15.584 119.548 14.144 119.548 12.336V1.704C119.548 1.384 120.412 1.224 122.14 1.224C123.884 1.224 124.756 1.384 124.756 1.704V12.528C124.756 12.848 124.924 13.104 125.26 13.296C125.612 13.488 125.98 13.584 126.364 13.584C126.748 13.584 127.092 13.496 127.396 13.32C127.716 13.144 127.876 12.88 127.876 12.528V1.68ZM136.682 13.872V5.328H134.978C134.706 5.328 134.514 4.984 134.402 4.296C134.354 3.96 134.33 3.616 134.33 3.264C134.33 2.912 134.354 2.568 134.402 2.232C134.514 1.544 134.706 1.2 134.978 1.2H143.042C143.314 1.2 143.498 1.544 143.594 2.232C143.658 2.568 143.69 2.912 143.69 3.264C143.69 3.616 143.658 3.96 143.594 4.296C143.498 4.984 143.314 5.328 143.042 5.328H141.434V13.872H143.114C143.386 13.872 143.578 14.216 143.69 14.904C143.754 15.24 143.786 15.584 143.786 15.936C143.786 16.288 143.754 16.632 143.69 16.968C143.578 17.656 143.386 18 143.114 18H135.026C134.754 18 134.57 17.656 134.474 16.968C134.41 16.632 134.378 16.288 134.378 15.936C134.378 15.584 134.41 15.24 134.474 14.904C134.57 14.216 134.754 13.872 135.026 13.872H136.682ZM152.612 17.616C152.612 17.936 151.82 18.096 150.236 18.096C148.652 18.096 147.86 17.936 147.86 17.616V5.568H144.979C144.708 5.568 144.516 5.2 144.404 4.464C144.356 4.112 144.332 3.752 144.332 3.384C144.332 3.016 144.356 2.656 144.404 2.304C144.516 1.568 144.708 1.2 144.979 1.2H155.42C155.692 1.2 155.884 1.568 155.996 2.304C156.044 2.656 156.068 3.016 156.068 3.384C156.068 3.752 156.044 4.112 155.996 4.464C155.884 5.2 155.692 5.568 155.42 5.568H152.612V17.616Z" fill="#EDEFF8"/>
</svg>
