<svg width="24" height="24" viewBox="0 0 24 24" fill="none" xmlns="http://www.w3.org/2000/svg">
<path d="M22 12L22.5857 12.4685L22.9605 12L22.5857 11.5315L22 12ZM13 11.25C12.5858 11.25 12.25 11.5858 12.25 12C12.25 12.4142 12.5858 12.75 13 12.75V11.25ZM18 17L18.5857 17.4685L22.5857 12.4685L22 12L21.4143 11.5315L17.4143 16.5315L18 17ZM22 12L22.5857 11.5315L18.5857 6.53148L18 7L17.4143 7.46852L21.4143 12.4685L22 12ZM22 12V11.25H13V12V12.75H22V12Z" fill="#4B63B7"/>
<path d="M14 15.8681V16.6115C14 18.2298 14 19.039 13.526 19.5985C13.0521 20.158 12.2539 20.291 10.6576 20.5571L8.98639 20.8356C5.7433 21.3761 4.12175 21.6464 3.06088 20.7477C2 19.849 2 18.2051 2 14.9172V9.08276C2 5.79493 2 4.15102 3.06088 3.25232C4.12175 2.35363 5.7433 2.62388 8.98639 3.1644L10.6576 3.44293C12.2539 3.70899 13.0521 3.84201 13.526 4.4015C14 4.961 14 5.77017 14 7.38851V7.93403" stroke="#4B63B7" stroke-width="1.5"/>
</svg>
