<svg width="20" height="20" viewBox="0 0 20 20" fill="none" xmlns="http://www.w3.org/2000/svg">
<g clip-path="url(#clip0_264_2737)">
<path d="M10 0C15.5228 0 20 4.47715 20 10C20 15.5228 15.5228 20 10 20C4.47715 20 0 15.5228 0 10C0 4.47715 4.47715 0 10 0ZM16.1019 5.65104C15.7638 5.2967 15.1981 5.29673 14.86 5.65104L8.38867 12.4373L6.11572 10.0545C5.73916 9.65963 5.10963 9.65963 4.73307 10.0545C4.41621 10.3868 4.41621 10.9088 4.73307 11.241L8.31706 15L16.1019 6.83594C16.418 6.50441 16.418 5.98256 16.1019 5.65104Z" fill="#C7CFE9"/>
</g>
<defs>
<clipPath id="clip0_264_2737">
<rect width="20" height="20" fill="white"/>
</clipPath>
</defs>
</svg>
