<svg width="22" height="22" viewBox="0 0 22 22" fill="none" xmlns="http://www.w3.org/2000/svg">
<path fill-rule="evenodd" clip-rule="evenodd" d="M11 20C9.21997 20 7.47991 19.4722 5.99987 18.4832C4.51983 17.4943 3.36628 16.0887 2.68509 14.4442C2.0039 12.7996 1.82567 10.99 2.17294 9.24419C2.5202 7.49836 3.37737 5.89471 4.63604 4.63604C5.89471 3.37737 7.49836 2.5202 9.24419 2.17294C10.99 1.82567 12.7996 2.0039 14.4442 2.68509C16.0887 3.36628 17.4943 4.51983 18.4832 5.99987C19.4722 7.47991 20 9.21997 20 11C20 13.3869 19.0518 15.6761 17.364 17.364C15.6761 19.0518 13.3869 20 11 20ZM12.125 5.375C12.125 4.75368 11.6213 4.25 11 4.25C10.3787 4.25 9.875 4.75368 9.875 5.375V12.125C9.875 12.7463 10.3787 13.25 11 13.25C11.6213 13.25 12.125 12.7463 12.125 12.125V5.375ZM12.125 16.625C12.125 16.0037 11.6213 15.5 11 15.5C10.3787 15.5 9.875 16.0037 9.875 16.625C9.875 17.2463 10.3787 17.75 11 17.75C11.6213 17.75 12.125 17.2463 12.125 16.625Z" fill="#4B63B7"/>
</svg>
